# xmcd
#
# Track frame offsets: 
#        150
#        11570
#        26595
#        39320
#        55670
#        78952
#        92962
#        112432
#        124737
#        136622
#        148795
#        156800
#        165715
#        175637
#        190767
#        206492
#        219250
#        242002
#
# Disc length: 3399 seconds
#
# Revision: 4
# Processed by: cddbd v1.5.2PL0 Copyright (c) Steve Scherf et al.
# Submitted via: ExactAudioCopy v0.99pb4
#
DISCID=ed0d4512
DTITLE=Various Artist - Brazil Blue
DYEAR=1993
DGENRE=World
TTITLE0=Doris Monteiro - Regra Tres
TTITLE1=Djavan - Nereci
TTITLE2=Milton Banana Trio - Cidade Vazia
TTITLE3=Paulinho Da Viola - Sarau Para Radamés
TTITLE4=Victor Assis Brasil - O Cantador
TTITLE5=Evan Lins - Começar De Novo
TTITLE6=Flavio Venturini - São Tomé
TTITLE7=Os Choroes with Radamés Gnattali - Bate-Papo
TTITLE8=Abel Ferreira - Chorando Baixinho
TTITLE9=Bola Sete - Copacabana
TTITLE10=Joyce - Samba de Uma Nota Só - Surfboard
TTITLE11=João Gilberto - Corcovado
TTITLE12=Helio Delmiro - Emotiva No 1
TTITLE13=Joel Nascimento - Ecos
TTITLE14=Quarteto Novo with Hermeto Pascoal - Fica Mal Com Deus
TTITLE15=Milton Nascimento - Milagres Dos Peixes
TTITLE16=Wagner Tiso - Choro De Mãe
TTITLE17=Nana Caymmi - Nem Uma Lágrima
EXTD=
EXTT0=
EXTT1=
EXTT2=
EXTT3=
EXTT4=
EXTT5=
EXTT6=
EXTT7=
EXTT8=
EXTT9=
EXTT10=
EXTT11=
EXTT12=
EXTT13=
EXTT14=
EXTT15=
EXTT16=
EXTT17=
PLAYORDER=
